<svg xmlns="http://www.w3.org/2000/svg" xmlns:xlink="http://www.w3.org/1999/xlink" width="500" zoomAndPan="magnify" viewBox="0 0 375 374.999991" height="500" preserveAspectRatio="xMidYMid meet" version="1.0"><defs><clipPath id="7e5534383e"><path d="M 0 53.410156 L 375 53.410156 L 375 337.660156 L 0 337.660156 Z M 0 53.410156 " clip-rule="nonzero"/></clipPath></defs><g clip-path="url(#7e5534383e)"><path fill="#1e3f48" d="M 371.058594 234.785156 C 365.839844 236.089844 360.480469 236.183594 355.152344 236.488281 C 346.929688 236.960938 338.726562 237.574219 330.609375 239.082031 C 329.300781 239.324219 328.492188 239.867188 327.648438 240.886719 C 317.269531 253.449219 309.019531 267.511719 299.558594 280.726562 C 288.476562 296.210938 277.320312 311.632812 265.796875 326.789062 C 263.382812 329.960938 261.738281 333.753906 258.058594 335.851562 C 255.972656 337.035156 253.964844 337.578125 251.429688 337.164062 C 221.753906 332.324219 192.21875 326.605469 162.367188 322.847656 C 145.234375 320.6875 128.40625 316.671875 111.363281 313.941406 C 98.0625 311.8125 84.609375 310.527344 71.480469 307.464844 C 60.011719 304.789062 48.792969 301.019531 37.289062 298.550781 C 27.894531 296.535156 18.90625 293.386719 9.78125 290.582031 C 7.898438 290.003906 6.484375 288.804688 6.378906 286.871094 C 6.019531 280.285156 2.886719 274.476562 1.359375 268.222656 C 0.0117188 262.714844 0.222656 257.558594 4.53125 253.363281 C 12.019531 246.070312 17.777344 237.460938 23.59375 228.878906 C 24.964844 226.851562 26.453125 224.859375 28.152344 223.109375 C 41.765625 209.085938 52.128906 192.367188 65.472656 178.105469 C 68.257812 175.128906 70.203125 171.371094 72.585938 168.011719 C 73.863281 166.210938 74.007812 164.550781 73.007812 162.460938 C 70.941406 158.152344 69.378906 153.625 68.136719 148.996094 C 66.957031 144.609375 68.1875 142.613281 72.5625 141.761719 C 80.382812 140.246094 80.242188 140.230469 81.207031 131.539062 C 81.691406 127.183594 81.398438 122.628906 83.976562 118.628906 C 84.730469 117.460938 85.472656 116.558594 86.636719 115.84375 C 97.652344 109.054688 109.839844 105.839844 122.46875 103.886719 C 129.539062 102.789062 136.617188 102.109375 142.394531 102.457031 C 157.644531 102.332031 171.355469 103.402344 184.515625 108.222656 C 185.871094 108.71875 186.34375 108.335938 186.726562 107.253906 C 188.027344 103.527344 190.808594 100.957031 193.535156 98.300781 C 195.769531 96.128906 197.878906 93.820312 199.945312 91.484375 C 204.472656 86.378906 209.25 81.691406 215.261719 78.183594 C 222.648438 73.867188 229.363281 68.515625 237.082031 64.613281 C 246.53125 59.835938 256.667969 58.148438 266.847656 56.335938 C 274.308594 55.011719 281.832031 54.09375 289.390625 53.820312 C 297.777344 53.519531 299.765625 54.886719 302.894531 61.933594 C 305.464844 67.722656 307.488281 73.757812 310.035156 79.5625 C 318.949219 99.878906 329.441406 119.390625 340.804688 138.425781 C 345.507812 146.296875 348.570312 154.933594 352.84375 163.011719 C 356.070312 169.113281 359.269531 175.214844 362.695312 181.210938 C 366.476562 187.835938 366.390625 187.613281 359.445312 191.261719 C 357.191406 192.449219 356.640625 192.96875 358.472656 195.015625 C 361.21875 198.082031 363.617188 201.460938 366.289062 204.597656 C 368.808594 207.546875 369.328125 210.921875 368.726562 214.550781 C 368.230469 217.558594 368.554688 220.191406 370.605469 222.671875 C 372.226562 224.628906 373.410156 226.972656 374.164062 229.4375 C 375.035156 232.277344 373.960938 234.0625 371.058594 234.785156 Z M 371.058594 234.785156 " fill-opacity="1" fill-rule="nonzero"/></g><path fill="#767fa7" d="M 367.96875 225.539062 C 370.722656 230.441406 372.148438 231.425781 365.648438 232.175781 C 362.003906 232.597656 358.328125 232.972656 354.667969 233.007812 C 335.765625 233.175781 317.726562 237.503906 299.878906 243.402344 C 285.617188 248.109375 271.59375 253.300781 258.089844 259.851562 C 252.953125 262.339844 247.574219 260.839844 241.617188 261.460938 C 227.945312 260.109375 213.589844 261.121094 199.265625 262.082031 C 186.296875 262.949219 173.457031 265.105469 160.574219 266.839844 C 150.40625 268.207031 140.507812 270.535156 130.570312 272.875 C 124.996094 274.183594 124.355469 273.597656 122.746094 268.3125 C 120.480469 260.855469 117.640625 253.585938 113.886719 246.769531 C 107.683594 235.519531 104.621094 222.9375 98.8125 211.578125 C 89.6875 193.730469 83.824219 174.488281 74.824219 156.597656 C 73.484375 153.933594 72.765625 150.964844 71.570312 148.214844 C 70.867188 146.601562 71.359375 145.960938 72.898438 145.691406 C 74.539062 145.402344 76.175781 145.101562 77.816406 144.8125 C 78.933594 144.613281 79.492188 144.839844 79.929688 146.160156 C 81.535156 151 83.484375 155.722656 85.144531 160.546875 C 89.136719 172.117188 94.8125 182.929688 100.121094 193.90625 C 102.449219 198.722656 103.164062 204.058594 105.542969 208.886719 C 110.835938 219.632812 115.847656 230.507812 119.90625 241.820312 C 122.003906 247.671875 123.289062 253.785156 125.9375 259.453125 C 127.691406 263.207031 128.617188 263.914062 132.996094 263.140625 C 137.808594 262.292969 142.59375 261.292969 147.386719 260.324219 C 169.667969 255.820312 192.019531 251.957031 214.871094 252.066406 C 224.992188 252.113281 234.738281 254.40625 244.476562 256.726562 C 248.0625 257.582031 251.277344 257.359375 254.335938 255.273438 C 267.386719 246.375 281.714844 240.101562 296.550781 234.945312 C 308.96875 230.632812 321.691406 227.453125 334.796875 226.089844 C 339.554688 225.59375 344.359375 225.535156 349.140625 225.285156 C 354.796875 224.984375 360.503906 225.96875 366.109375 224.625 C 367.128906 224.378906 367.566406 224.824219 367.96875 225.539062 Z M 367.96875 225.539062 " fill-opacity="1" fill-rule="nonzero"/><path fill="#e48d7a" d="M 26.269531 261.472656 C 19.855469 259.835938 13.21875 259.074219 6.582031 257.925781 C 30.113281 228.300781 53.386719 198.996094 76.625 169.742188 C 79.277344 174.824219 81.210938 180.742188 83.597656 186.46875 C 83.960938 187.339844 83.628906 187.90625 83.179688 188.597656 C 67.878906 212.203125 51.777344 235.246094 35.082031 257.882812 C 32.722656 261.078125 30.53125 262.558594 26.269531 261.472656 Z M 277.84375 255.164062 C 271.125 257.75 264.417969 260.375 257.679688 262.902344 C 253.71875 264.390625 249.613281 265.738281 245.371094 265.121094 C 242.824219 264.753906 241.808594 265.761719 240.726562 267.652344 C 234.871094 277.867188 226.054688 282.535156 214.300781 281.398438 C 208.894531 280.871094 204.140625 278.308594 199.21875 276.273438 C 195.65625 274.800781 192.902344 272.269531 191.320312 268.910156 C 190.253906 266.652344 188.925781 266.441406 186.929688 266.65625 C 173.558594 268.089844 160.335938 270.53125 147.046875 272.523438 C 140.589844 273.492188 134.53125 276.460938 127.808594 276.222656 C 122.078125 276.019531 121.101562 275.40625 119.527344 270.078125 C 117.921875 264.640625 115.792969 259.390625 113.53125 254.203125 C 109.09375 244.035156 103.769531 234.289062 100.167969 223.707031 C 97.941406 217.160156 95.105469 210.726562 91.683594 204.675781 C 76.742188 224.152344 67.777344 247.371094 51.144531 265.714844 C 58.628906 267.359375 65.691406 268.777344 72.6875 270.484375 C 85.171875 273.523438 97.40625 277.527344 110.027344 280.066406 C 123.769531 282.832031 137.710938 283.972656 151.613281 285.542969 C 166.726562 287.246094 181.917969 288.289062 196.953125 290.730469 C 206.921875 292.347656 217.101562 292.546875 226.972656 294.839844 C 232.835938 296.203125 238.726562 297.105469 244.730469 297.492188 C 246.382812 297.597656 247.078125 297.152344 247.867188 295.890625 C 249.636719 293.066406 251.410156 290.210938 253.472656 287.601562 C 261.824219 277.023438 270.285156 266.535156 278.703125 256.015625 C 279.464844 255.597656 280.066406 255.027344 280.460938 254.132812 C 279.390625 254.109375 278.550781 254.457031 277.84375 255.164062 Z M 277.84375 255.164062 " fill-opacity="1" fill-rule="nonzero"/><path fill="#daa972" d="M 314.710938 244.632812 C 308.398438 254.0625 302.066406 263.496094 295.28125 272.582031 C 290.222656 279.359375 284.085938 285.332031 279.09375 292.148438 C 273.957031 299.167969 267.761719 305.324219 263.054688 312.675781 C 260.71875 316.320312 257.929688 319.683594 255.277344 323.125 C 254.460938 324.1875 253.4375 325.222656 251.898438 324.839844 C 250.359375 324.460938 250.058594 323.109375 249.785156 321.753906 C 248.570312 315.765625 247.203125 309.808594 246.136719 303.800781 C 245.667969 301.167969 244.769531 299.855469 241.839844 300.203125 C 239.765625 300.453125 237.546875 300.421875 235.515625 299.960938 C 223.671875 297.289062 211.597656 296.269531 199.625 294.507812 C 179.476562 291.539062 159.226562 289.648438 139 287.566406 C 119.914062 285.601562 101.253906 281.914062 82.945312 276.324219 C 72.359375 273.09375 61.53125 271.046875 50.554688 268.863281 C 51.929688 278.230469 53.242188 287.296875 54.601562 296.359375 C 54.859375 298.097656 55.609375 299.214844 57.667969 299.625 C 61.910156 300.46875 66.039062 301.886719 70.269531 302.792969 C 83.558594 305.636719 97.0625 307.136719 110.476562 309.207031 C 129.0625 312.074219 147.410156 316.410156 166.089844 318.671875 C 194.621094 322.128906 222.832031 327.550781 251.132812 332.40625 C 255.839844 333.214844 258.171875 331.648438 260.417969 328.242188 C 264.34375 322.289062 268.332031 316.386719 273.039062 310.992188 C 279.433594 303.671875 284.265625 295.226562 289.835938 287.308594 C 300.285156 272.464844 310.925781 257.757812 321.484375 242.992188 C 321.804688 242.542969 322.210938 242.128906 321.910156 241.316406 C 318.960938 241.144531 316.609375 241.796875 314.710938 244.632812 Z M 234.683594 317.410156 C 233.65625 318.914062 234.003906 321.621094 231.351562 321.332031 C 227.773438 320.839844 224.375 320.679688 221.222656 319.988281 C 217.960938 319.277344 215.785156 316.050781 213.53125 313.484375 C 213.316406 313.242188 213.375 312.628906 213.492188 312.25 C 213.988281 310.640625 219.457031 307.277344 221.183594 307.375 C 224.058594 307.539062 226.851562 308.398438 229.773438 308.199219 C 232.453125 308.011719 233.183594 310.746094 234.910156 312.003906 C 237.332031 313.765625 235.925781 315.589844 234.683594 317.410156 Z M 38.09375 288.953125 C 38.6875 290.695312 39.003906 292.53125 39.519531 294.59375 C 31.585938 293.1875 24.226562 291.085938 16.902344 288.375 C 12.234375 286.644531 9.910156 284.675781 9.371094 279.660156 C 8.960938 275.863281 7.171875 272.21875 6.007812 268.503906 C 5.742188 267.65625 5.507812 266.796875 5.304688 265.929688 C 3.964844 260.175781 4.316406 259.878906 9.878906 261.050781 C 16.058594 262.351562 22.277344 263.496094 28.496094 264.617188 C 29.722656 264.835938 30.5625 265.15625 30.902344 266.464844 C 32.878906 274.097656 35.550781 281.5 38.09375 288.953125 Z M 193.3125 266.027344 C 207.980469 265.234375 222.296875 264.34375 237.007812 264.851562 C 231.746094 275.332031 220.960938 279.59375 209.363281 275.722656 C 205.292969 274.363281 200.960938 273.441406 197.40625 270.796875 C 195.894531 269.671875 194.535156 268.363281 193.3125 266.027344 Z M 163.230469 176.515625 C 167.546875 187.898438 171.925781 199.257812 176.3125 210.695312 C 172.59375 212.210938 168.851562 211.285156 165.28125 211.917969 C 159.5625 212.929688 154.089844 214.675781 148.960938 217.386719 C 147.058594 218.390625 146.242188 218.105469 145.546875 215.96875 C 142.277344 205.953125 138.757812 196.019531 134.722656 186.285156 C 133.546875 183.457031 132 180.78125 130.660156 178.101562 C 140.046875 175.097656 149.40625 173.632812 159.023438 173.6875 C 161.328125 173.699219 162.460938 174.480469 163.230469 176.515625 Z M 163.230469 176.515625 " fill-opacity="1" fill-rule="nonzero"/><path fill="#e5dad8" d="M 89.621094 132.550781 C 94.34375 145.839844 100.90625 158.375 105.75 171.613281 C 109 180.5 112.492188 189.28125 117.332031 197.4375 C 120.070312 202.0625 122.132812 206.941406 123.746094 212.042969 C 126.523438 220.820312 130.378906 229.230469 132.503906 238.234375 C 132.957031 240.136719 134.046875 241.890625 134.679688 243.335938 C 170.800781 226.609375 207.382812 223.785156 245.3125 236.871094 C 243.675781 231.554688 241.617188 226.4375 239.042969 221.523438 C 231.558594 207.234375 224.296875 192.828125 216.535156 178.691406 C 208.628906 164.300781 204.070312 148.511719 197.125 133.726562 C 194.519531 128.183594 191.195312 123.003906 188.863281 117.386719 C 187.359375 113.761719 185.082031 112.054688 181.527344 111.140625 C 160.941406 105.847656 140.21875 105.054688 119.316406 108.941406 C 108.3125 110.988281 97.71875 114.132812 88.003906 119.90625 C 86.054688 121.0625 85.640625 122.054688 86.570312 124.128906 C 87.789062 126.84375 88.617188 129.734375 89.621094 132.550781 Z M 177.589844 214.542969 C 167.960938 214.804688 158.703125 216.691406 149.753906 220.367188 C 145.128906 222.265625 144.632812 221.695312 142.628906 217.023438 C 137.425781 204.890625 133.902344 192.097656 128.101562 180.199219 C 126.363281 176.632812 127.117188 175.699219 131.058594 174.886719 C 135.816406 173.902344 140.273438 171.75 145.183594 171.3125 C 148.601562 171.003906 152.003906 170.511719 155.414062 170.105469 C 155.417969 170.222656 155.425781 170.34375 155.429688 170.460938 C 157.539062 170.460938 159.648438 170.480469 161.753906 170.457031 C 164.378906 170.433594 165.390625 172.214844 166.152344 174.304688 C 169.515625 183.570312 172.875 192.839844 176.253906 202.101562 C 177.390625 205.21875 178.5 208.351562 179.773438 211.414062 C 180.753906 213.777344 179.707031 214.484375 177.589844 214.542969 Z M 225.714844 213.34375 C 225.34375 215.144531 223.6875 214.601562 222.683594 214.351562 C 218.367188 213.285156 214.019531 212.65625 209.589844 212.171875 C 205.074219 211.675781 200.726562 212.222656 196.34375 212.789062 C 194.5625 213.019531 192.808594 213.027344 191.035156 213.078125 C 190.109375 213.105469 189.121094 212.921875 189.113281 211.773438 C 189.109375 210.890625 189.9375 210.53125 190.75 210.402344 C 195.554688 209.628906 200.363281 208.871094 204.492188 208.214844 C 211.390625 208.964844 217.589844 209.445312 223.535156 211.421875 C 224.523438 211.75 226.050781 211.71875 225.714844 213.34375 Z M 217.152344 200.308594 C 218.417969 200.738281 220.074219 201.074219 219.570312 202.820312 C 219.121094 204.382812 217.4375 203.859375 216.367188 203.597656 C 210.410156 202.132812 204.285156 201.933594 198.347656 200.929688 C 194.386719 201.417969 190.53125 202.035156 186.632812 201.789062 C 185.761719 201.730469 184.375 202.226562 184.320312 200.664062 C 184.269531 199.25 185.71875 199.222656 186.519531 199.164062 C 192.894531 198.703125 199.210938 196.894531 205.6875 198.398438 C 209.460938 199.269531 213.429688 199.050781 217.152344 200.308594 Z M 210.503906 185.144531 C 210.5 186.203125 209.710938 186.351562 208.890625 186.371094 C 208.113281 186.394531 207.332031 186.378906 205.789062 186.378906 C 199.28125 184.59375 192.207031 186.136719 185.109375 187.539062 C 183.96875 187.765625 182.382812 188.023438 182.085938 186.359375 C 181.75 184.480469 183.308594 184.363281 184.679688 184.171875 C 188.953125 183.582031 193.207031 182.8125 197.496094 182.375 C 201.402344 181.980469 205.183594 183.386719 209.0625 183.617188 C 209.945312 183.667969 210.507812 184.226562 210.503906 185.144531 Z M 200.925781 170.289062 C 202.683594 170.363281 204.464844 170.832031 205.886719 172.023438 C 206.480469 172.519531 207.011719 173.160156 206.523438 174.042969 C 206.152344 174.710938 205.507812 175 204.824219 174.777344 C 196.03125 171.882812 186.941406 173.265625 177.976562 172.890625 C 177.644531 172.878906 177.308594 172.894531 176.976562 172.871094 C 176.03125 172.8125 175.105469 172.554688 174.988281 171.484375 C 174.84375 170.179688 175.941406 169.675781 176.90625 169.636719 C 179.910156 169.515625 182.921875 169.59375 184.96875 169.59375 C 190.96875 169.03125 195.921875 170.082031 200.925781 170.289062 Z M 192.878906 154.582031 C 194.125 154.9375 195.367188 155.453125 194.921875 157.054688 C 194.519531 158.5 193.148438 158.3125 192.109375 158.050781 C 182.132812 155.574219 171.949219 155.738281 161.875 156.40625 C 148.726562 157.28125 135.425781 157.273438 122.578125 160.867188 C 120.023438 161.582031 117.574219 162.683594 115.027344 163.429688 C 114.148438 163.6875 112.765625 163.945312 112.339844 162.800781 C 111.84375 161.464844 113.347656 161.34375 114.113281 160.9375 C 120.886719 157.351562 128.191406 155.550781 135.757812 154.902344 C 147.378906 153.910156 158.96875 152.371094 171.898438 152.765625 C 177.46875 152.664062 184.257812 152.671875 190.949219 154.101562 C 191.597656 154.242188 192.242188 154.398438 192.878906 154.582031 Z M 189.460938 138.578125 C 189.039062 140.695312 187.117188 139.925781 185.578125 139.652344 C 170.808594 137.015625 156.125 138.464844 141.410156 140.363281 C 131.378906 141.65625 121.453125 143.324219 111.757812 146.234375 C 111.234375 146.394531 110.632812 146.667969 110.15625 146.539062 C 109.386719 146.335938 108.140625 146.496094 108.109375 145.328125 C 108.085938 144.441406 109.0625 144.355469 109.800781 144.0625 C 120.207031 139.980469 131.140625 138.28125 142.113281 136.65625 C 150.488281 135.417969 158.871094 134.515625 167.660156 134.65625 C 173.71875 134.261719 180.019531 134.964844 186.28125 136.0625 C 187.769531 136.324219 189.878906 136.492188 189.460938 138.578125 Z M 105.175781 126.613281 C 112.1875 122.125 120.234375 120.753906 128.195312 119.386719 C 134.085938 118.375 140.074219 117.71875 146.097656 117.863281 C 158.15625 117.941406 169.957031 119.953125 181.683594 122.5625 C 183.148438 122.886719 184.996094 123.261719 184.664062 124.992188 C 184.257812 127.089844 182.394531 126.421875 180.824219 126.0625 C 168.445312 123.257812 155.953125 120.878906 143.214844 121.550781 C 130.671875 122.214844 118.238281 123.917969 106.648438 129.347656 C 105.613281 129.835938 104.269531 130.828125 103.4375 129.308594 C 102.585938 127.746094 104.21875 127.222656 105.175781 126.613281 Z M 362.492188 210.308594 C 363.636719 210.523438 365.074219 210.335938 364.941406 212.265625 C 364.804688 214.289062 363.316406 213.730469 362.226562 213.722656 C 357.546875 213.6875 352.878906 213.667969 348.222656 214.335938 C 326.0625 217.507812 303.816406 220.429688 283.199219 229.867188 C 274.882812 233.675781 265.84375 236.234375 258.949219 242.785156 C 257.878906 243.804688 256.484375 244.503906 255.648438 246.734375 C 289.4375 226.167969 325.859375 217.675781 364.621094 216.613281 C 363.730469 221.785156 363.730469 221.839844 358.460938 221.605469 C 330.902344 220.378906 304.886719 226.417969 279.738281 237.480469 C 270.925781 241.359375 262.355469 245.523438 254.652344 251.183594 C 249.835938 254.726562 245.085938 253.730469 240.496094 252.167969 C 222.847656 246.15625 204.964844 247.640625 186.957031 249.546875 C 168.660156 251.480469 150.835938 255.773438 132.945312 259.773438 C 132.539062 259.863281 132.089844 259.785156 131.605469 259.785156 C 131.699219 257.089844 132.917969 255.828125 135.4375 254.78125 C 148.515625 249.339844 161.949219 245.242188 176.011719 243.464844 C 187.828125 241.96875 199.691406 240.148438 211.613281 241.363281 C 220.425781 242.257812 229.023438 244.609375 237.617188 246.832031 C 240.875 247.675781 244.125 249.132812 247.765625 247.9375 C 235.796875 243.0625 223.4375 239.738281 210.511719 238.429688 C 197.421875 237.101562 184.515625 239.03125 171.644531 240.710938 C 158.601562 242.414062 146.253906 246.777344 134.21875 252.652344 C 133.953125 250.078125 135.316406 248.652344 137.066406 247.386719 C 143.519531 242.714844 151.09375 240.90625 158.53125 238.574219 C 175.050781 233.390625 191.929688 231.960938 209.046875 233.402344 C 221.6875 234.46875 234.339844 235.878906 245.726562 242.324219 C 247.542969 243.351562 249.441406 243.378906 251.519531 242.738281 C 256.886719 241.074219 261.554688 238.058594 266.457031 235.476562 C 286.886719 224.730469 307.976562 215.703125 330.941406 212.003906 C 340.386719 210.484375 349.929688 209.542969 359.539062 209.867188 C 360.527344 209.902344 361.511719 210.121094 362.492188 210.308594 Z M 254.113281 298.375 C 253.695312 299.007812 252.625 299.847656 253.851562 300.605469 C 254.851562 301.230469 255.578125 300.3125 256.046875 299.617188 C 259.609375 294.320312 264.199219 289.894531 268.285156 285.046875 C 276.171875 275.683594 284.214844 266.4375 290.957031 256.15625 C 292.773438 253.386719 295.71875 251.492188 297.550781 248.628906 C 298.261719 247.519531 299.730469 247.304688 301.742188 247.253906 C 298.121094 252.265625 295.292969 257.050781 291.734375 261.351562 C 280.734375 274.644531 269.140625 287.4375 258.679688 301.171875 C 257.535156 302.675781 256.542969 304.292969 255.523438 305.886719 C 255.082031 306.582031 254.855469 307.527344 255.585938 308.011719 C 256.328125 308.503906 257.074219 307.832031 257.582031 307.230469 C 259.378906 305.097656 261.324219 303.0625 262.878906 300.765625 C 267.261719 294.289062 272.59375 288.574219 277.402344 282.441406 C 283.4375 274.746094 290.113281 267.554688 296.335938 260.003906 C 299.800781 255.796875 302.992188 251.351562 306.148438 246.902344 C 307.578125 244.882812 309.414062 244.121094 311.53125 243.953125 C 293.875 270.503906 271.699219 293.570312 253.109375 320.199219 C 251.753906 313.863281 250.570312 308.25 249.347656 302.644531 C 248.976562 300.953125 249.722656 299.695312 250.613281 298.34375 C 256.523438 289.402344 263.429688 281.21875 270.179688 272.933594 C 275.382812 266.546875 279.671875 259.472656 285.410156 253.472656 C 287.472656 251.320312 289.757812 250.730469 292.46875 249.832031 C 282.546875 263.171875 272.460938 275.972656 261.582031 288.132812 C 258.742188 291.304688 256.445312 294.847656 254.113281 298.375 Z M 84.550781 133.703125 C 83.984375 131.78125 84.617188 129.820312 85.164062 127.894531 C 89.035156 141.945312 95.964844 154.703125 100.804688 168.253906 C 105.148438 180.402344 110.40625 192.085938 116.363281 203.570312 C 121.5 213.464844 124.878906 224.277344 127.898438 235.078125 C 128.894531 238.640625 130.125 242.035156 131.808594 245.308594 C 132.351562 246.359375 133.417969 247.53125 131.878906 249.3125 C 129.023438 241.722656 124.652344 235.175781 122.097656 227.761719 C 120.222656 222.316406 118.128906 216.933594 115.367188 211.902344 C 109.972656 202.0625 106 191.640625 102.222656 181.136719 C 99.527344 173.640625 96.09375 166.46875 93.007812 159.144531 C 89.519531 150.871094 87.09375 142.273438 84.550781 133.703125 Z M 84.234375 148.460938 C 83.269531 145.238281 82.9375 142.203125 83.734375 138.777344 C 84.367188 140.851562 85.085938 142.902344 85.621094 145.003906 C 87.496094 152.332031 90.234375 159.371094 93.625 166.078125 C 98.9375 176.589844 102.355469 187.820312 106.515625 198.757812 C 109.292969 206.058594 113.542969 212.578125 116.523438 219.746094 C 117.195312 221.363281 117.871094 223.011719 118.359375 224.65625 C 120.980469 233.554688 125.996094 241.378906 129.511719 249.878906 C 130.632812 252.59375 130.832031 254.90625 128.980469 257.523438 C 126.144531 251.28125 124.542969 244.734375 122.179688 238.472656 C 118.050781 227.539062 112.480469 217.300781 107.917969 206.59375 C 104.753906 199.164062 102.03125 191.554688 98.511719 184.261719 C 92.914062 172.675781 87.925781 160.839844 84.234375 148.460938 Z M 363.875 206.96875 C 357.945312 206.46875 352.605469 206.523438 347.230469 206.847656 C 328.535156 207.96875 310.617188 212.074219 293.316406 219.324219 C 282.855469 223.714844 272.371094 227.976562 262.640625 233.878906 C 262.066406 234.582031 261.328125 234.992188 260.4375 235.179688 C 260.183594 234.121094 260.945312 233.988281 261.617188 233.777344 C 264.835938 230.65625 268.410156 227.996094 272.414062 225.980469 C 283.738281 220.273438 294.957031 214.328125 306.484375 209.0625 C 316.792969 204.351562 327.925781 201.847656 338.699219 198.375 C 342.925781 197.015625 347.1875 195.746094 351.378906 194.277344 C 352.894531 193.746094 353.503906 194.003906 354.496094 195.363281 C 357.304688 199.214844 360.46875 202.804688 363.875 206.96875 Z M 358.949219 182.984375 C 355.316406 177.363281 352.394531 171.355469 349.167969 165.515625 C 344.480469 157.03125 340.953125 148 336.066406 139.589844 C 323.316406 117.652344 310.621094 95.65625 301.871094 71.679688 C 300.351562 67.511719 299.066406 63.21875 296.714844 59.386719 C 295.917969 58.082031 295.222656 57.398438 293.324219 57.671875 C 286.9375 58.59375 280.445312 58.8125 274.085938 59.851562 C 263.464844 61.589844 252.707031 62.75 242.640625 67.132812 C 234.195312 70.8125 226.707031 75.972656 219.175781 81.136719 C 215.695312 83.523438 211.839844 85.335938 208.8125 88.40625 C 203.570312 93.722656 198.746094 99.421875 193.117188 104.390625 C 188.65625 108.332031 188.597656 110.445312 191.160156 115.679688 C 191.695312 116.777344 192.300781 117.847656 192.953125 118.878906 C 198.589844 127.734375 203.375 137.09375 206.773438 146.957031 C 213.085938 165.28125 222.945312 181.867188 231.625 198.996094 C 238.195312 211.964844 245.792969 224.398438 250.261719 238.539062 C 250.78125 238.253906 251.191406 238.097656 251.515625 237.832031 C 255.8125 234.292969 260.015625 230.632812 264.402344 227.207031 C 271.214844 221.890625 279.335938 218.910156 286.933594 215.015625 C 295.332031 210.707031 303.277344 205.359375 312.34375 202.527344 C 321.460938 199.683594 330.433594 196.375 339.699219 193.96875 C 345.59375 192.4375 351.335938 190.277344 357.101562 188.265625 C 361.15625 186.855469 361.234375 186.523438 358.949219 182.984375 Z M 205.863281 113.425781 C 205.234375 112.539062 206.117188 111.761719 206.785156 111.179688 C 216.992188 102.25 226.367188 92.058594 239.015625 86.535156 C 250.6875 81.441406 262.835938 77.46875 275.273438 74.558594 C 277.070312 74.136719 279.046875 74.5 280.941406 74.5 C 280.941406 74.414062 280.941406 74.328125 280.9375 74.242188 C 282.386719 74.242188 283.84375 74.15625 285.28125 74.269531 C 286.398438 74.359375 288.039062 73.976562 288.046875 75.84375 C 288.054688 77.652344 286.378906 77.367188 285.292969 77.546875 C 283.988281 77.765625 282.625 77.753906 281.289062 77.699219 C 275.859375 77.488281 270.722656 78.796875 265.648438 80.550781 C 259.148438 82.792969 252.625 84.96875 246.105469 87.160156 C 236.984375 90.226562 229.171875 95.457031 222.140625 101.894531 C 217.777344 105.890625 213.085938 109.460938 208.410156 113.058594 C 207.660156 113.632812 206.71875 114.625 205.863281 113.425781 Z M 214.90625 131.898438 C 214.183594 132.191406 213.027344 132.46875 212.550781 131.429688 C 212.101562 130.441406 213.128906 130.1875 213.742188 129.753906 C 216.476562 127.8125 218.789062 125.414062 221.191406 123.089844 C 232.046875 112.570312 244.53125 104.632812 258.960938 99.929688 C 262.65625 98.722656 266.34375 97.539062 269.863281 95.84375 C 277.210938 92.304688 286.125 90.332031 295.671875 90.027344 C 296.453125 90.070312 297.714844 90.078125 297.992188 91.453125 C 298.328125 93.144531 296.898438 93.558594 295.726562 93.734375 C 292.4375 94.222656 289.125 94.636719 285.808594 94.902344 C 277.484375 95.558594 270.695312 100.589844 262.933594 102.847656 C 246.910156 107.511719 233.03125 115.804688 221.199219 127.578125 C 219.386719 129.382812 217.300781 130.929688 214.90625 131.898438 Z M 227.171875 149.359375 C 226.398438 150.519531 225.320312 152.199219 223.757812 151.085938 C 221.933594 149.785156 223.53125 148.460938 224.371094 147.152344 C 233.472656 132.9375 247.730469 125.222656 261.910156 117.515625 C 272.84375 111.570312 284.5 107.3125 296.5625 104.25 C 299.441406 103.519531 302.464844 103.324219 305.035156 102.484375 C 306.230469 102.558594 307.21875 102.425781 307.433594 103.65625 C 307.609375 104.671875 307.152344 105.410156 306.265625 105.832031 C 305.566406 106.164062 304.820312 106.5625 304.074219 106.605469 C 297.550781 106.976562 291.6875 109.886719 285.46875 111.441406 C 277.453125 113.445312 270.300781 117.699219 262.90625 121.230469 C 248.929688 127.90625 236.011719 136.070312 227.171875 149.359375 Z M 232.117188 167.011719 C 230.878906 165.992188 232.949219 164.382812 233.726562 163.132812 C 239.304688 154.1875 247.804688 148.257812 256.148438 142.40625 C 263.136719 137.503906 270.75 133.4375 278.328125 129.453125 C 287.941406 124.394531 298.714844 123.570312 309.203125 121.835938 C 310.5625 121.570312 312.203125 121.179688 312.46875 123.015625 C 312.738281 124.886719 311.066406 125.179688 309.566406 125.433594 C 299.71875 127.105469 289.441406 127.785156 280.660156 132.824219 C 269.503906 139.230469 257.75 144.773438 248.101562 153.640625 C 244.246094 157.183594 240.019531 160.304688 236.910156 164.597656 C 236.777344 164.777344 236.628906 164.945312 236.46875 165.097656 C 235.210938 166.3125 233.429688 168.097656 232.117188 167.011719 Z M 237.296875 184.925781 C 236.566406 184.816406 236.027344 184.457031 235.835938 183.757812 C 235.652344 183.078125 235.8125 182.5625 236.539062 182.125 C 251.109375 173.320312 264.269531 162.386719 279.132812 154.007812 C 286.246094 150 293.835938 147.144531 301.375 144.183594 C 306.148438 142.308594 311.472656 142.988281 316.492188 142.085938 C 318.238281 141.773438 320 141.554688 321.664062 141.308594 C 322.933594 141.410156 324.519531 141.027344 324.675781 142.734375 C 324.8125 144.242188 323.492188 144.679688 322.199219 144.878906 C 318.46875 145.453125 314.761719 146.347656 311.015625 146.5625 C 300.425781 147.160156 291.355469 152.117188 282.457031 156.949219 C 271.921875 162.671875 261.675781 169.011719 252.234375 176.546875 C 248.6875 179.375 244.605469 181.53125 240.761719 183.984375 C 239.710938 184.65625 238.601562 185.125 237.296875 184.925781 Z M 247.523438 199.609375 C 246.789062 200.109375 246.078125 200.648438 245.363281 201.175781 C 244.789062 201.597656 244.199219 201.882812 243.597656 201.25 C 243.027344 200.652344 243.144531 200.0625 243.667969 199.492188 C 244.421875 198.675781 245.132812 197.8125 245.925781 197.035156 C 257.863281 185.308594 271.742188 176.804688 287.582031 171.328125 C 297.113281 168.03125 306.089844 163.261719 315.816406 160.40625 C 319.660156 159.277344 323.425781 157.960938 327.5 158.019531 C 328.722656 158.078125 329.949219 158.125 331.171875 158.195312 C 332.207031 158.253906 332.871094 158.816406 332.925781 159.839844 C 332.984375 160.914062 332.304688 161.402344 331.269531 161.519531 C 307.714844 164.175781 287.386719 175.679688 266.441406 185.398438 C 259.230469 188.746094 254.046875 195.148438 247.523438 199.609375 Z M 342.859375 171.558594 C 342.53125 173.199219 340.992188 173.226562 339.945312 173.265625 C 332.390625 173.566406 325.464844 176.46875 318.28125 178.292969 C 315.804688 178.921875 313.28125 179.539062 311.113281 180.925781 C 298.300781 189.117188 283.859375 193.945312 270.359375 200.71875 C 264.542969 203.636719 258.851562 206.558594 254.457031 211.496094 C 254.089844 211.910156 253.648438 212.269531 253.191406 212.582031 C 252.414062 213.109375 251.480469 213.476562 250.796875 212.621094 C 250.195312 211.867188 250.410156 211.082031 251.148438 210.28125 C 255.003906 206.078125 259.007812 202.152344 264.21875 199.535156 C 274.652344 194.300781 285.417969 189.8125 296.0625 185.050781 C 297.683594 184.324219 299.425781 183.753906 300.867188 182.757812 C 312.183594 174.953125 325.269531 172.539062 338.414062 170.304688 C 339.496094 170.121094 340.632812 170.183594 341.746094 170.222656 C 342.53125 170.246094 342.941406 170.730469 342.859375 171.558594 Z M 342.859375 171.558594 " fill-opacity="1" fill-rule="nonzero"/></svg>