<svg xmlns="http://www.w3.org/2000/svg" xmlns:xlink="http://www.w3.org/1999/xlink" width="500" zoomAndPan="magnify" viewBox="0 0 375 374.999991" height="500" preserveAspectRatio="xMidYMid meet" version="1.0"><defs><clipPath id="0765296769"><path d="M 195 12.890625 L 375 12.890625 L 375 221 L 195 221 Z M 195 12.890625 " clip-rule="nonzero"/></clipPath><clipPath id="b30330a94e"><path d="M 0 34 L 317 34 L 317 362.390625 L 0 362.390625 Z M 0 34 " clip-rule="nonzero"/></clipPath></defs><g clip-path="url(#0765296769)"><path fill="#3d3b93" d="M 249.9375 12.988281 C 269.765625 11.109375 313.28125 40.226562 326.410156 55.242188 C 361.625 95.515625 390.082031 162.191406 366.164062 214.527344 C 360.640625 226.621094 347.15625 218.316406 337.007812 216.222656 C 314.28125 211.542969 291.25 206.199219 269.097656 199.082031 C 249.847656 192.898438 228.214844 182.015625 208.328125 178.910156 C 204.164062 178.257812 200.242188 180.40625 197.492188 176.027344 C 191.660156 166.757812 198.8125 143.738281 200.789062 132.753906 C 205.226562 108.058594 210.910156 93.75 218.039062 70.398438 C 221.664062 58.507812 223.625 45.363281 227.917969 33.613281 C 229.605469 29.003906 235.3125 14.691406 239.945312 14.082031 C 243.125 13.664062 246.808594 13.289062 249.941406 12.988281 Z M 249.9375 12.988281 " fill-opacity="1" fill-rule="nonzero"/></g><g clip-path="url(#b30330a94e)"><path fill="#3d3b93" d="M 170.691406 184.304688 C 182.4375 187.160156 193.375 192.613281 204.925781 196.039062 C 236.945312 205.539062 272.417969 215.648438 304.722656 223.828125 C 311.226562 225.476562 316.671875 222.757812 316.183594 233.039062 C 315.519531 247.074219 311.148438 271.3125 305.382812 284.101562 C 294.726562 307.730469 255.726562 344.417969 231.070312 352.496094 C 186.9375 366.945312 154.152344 364.300781 110.039062 352.78125 C 52.292969 337.707031 7.75 289.261719 1.941406 228.96875 C -0.183594 206.933594 -1.796875 178.039062 4.019531 156.835938 C 10.925781 131.652344 31.382812 94.859375 50.046875 76.613281 C 80.414062 46.933594 151.925781 27.675781 192.945312 36.4375 C 197.90625 37.496094 204.921875 38.121094 206.113281 43.882812 C 207.152344 48.910156 202.511719 58.703125 201.203125 64.539062 C 196.585938 85.117188 193.980469 106.378906 189.558594 127.007812 C 185.335938 146.707031 177.367188 165.382812 170.691406 184.300781 Z M 170.691406 184.304688 " fill-opacity="1" fill-rule="nonzero"/></g><path fill="#f0f9ff" d="M 309.222656 63.507812 C 309.601562 63.9375 311.378906 73.589844 307.796875 73.757812 C 295.617188 79.667969 284.136719 87.058594 271.773438 92.601562 C 267.320312 94.597656 261.910156 97.152344 257.105469 97.820312 C 257.398438 95.804688 259.707031 95.289062 261.097656 94.273438 C 273.761719 85.019531 287.425781 76.492188 300.542969 67.859375 C 302.007812 66.898438 308.214844 62.367188 309.222656 63.503906 Z M 309.222656 63.507812 " fill-opacity="1" fill-rule="nonzero"/><path fill="#f0f9ff" d="M 288.652344 100.582031 C 284.949219 104.605469 279.457031 107.796875 274.84375 110.777344 C 261.160156 119.621094 247.363281 128.894531 231.46875 133.257812 C 228.683594 133.34375 213.886719 143.925781 213.21875 143.128906 C 213.003906 142.871094 213.003906 136.839844 213.332031 136.382812 C 214.070312 135.34375 233.851562 129.929688 236.496094 125.933594 L 288.652344 100.578125 Z M 288.652344 100.582031 " fill-opacity="1" fill-rule="nonzero"/><path fill="#f0f9ff" d="M 300.992188 136.273438 L 293.71875 140.652344 C 275.75 147.828125 258.09375 156.261719 239.273438 160.96875 C 242.914062 156.757812 250.421875 154.214844 255.730469 152.046875 C 266.441406 147.679688 278.707031 143.085938 289.648438 139.320312 C 293.296875 138.066406 297.121094 136.375 300.992188 136.273438 Z M 300.992188 136.273438 " fill-opacity="1" fill-rule="nonzero"/><path fill="#f0f9ff" d="M 305.109375 107.433594 C 312.066406 100.53125 321.90625 96.324219 327.695312 88.175781 C 330.265625 84.554688 328.917969 80.421875 332.546875 84.789062 C 334.96875 87.699219 338.597656 91.320312 334.316406 93.429688 C 324.605469 98.21875 315.691406 104.789062 305.109375 107.433594 Z M 305.109375 107.433594 " fill-opacity="1" fill-rule="nonzero"/><path fill="#f0f9ff" d="M 252.988281 59.398438 L 229.675781 78.613281 C 229.898438 77.078125 230.660156 72.988281 231.351562 72.054688 C 231.929688 71.277344 245.453125 62.8125 247.621094 61.570312 C 249.378906 60.566406 250.722656 58.988281 252.988281 59.398438 Z M 252.988281 59.398438 " fill-opacity="1" fill-rule="nonzero"/><path fill="#f0f9ff" d="M 284.535156 170.589844 C 284.871094 170.953125 282.082031 179.792969 281.679688 180.082031 C 280.4375 180.972656 273.199219 179.699219 270.824219 180.191406 L 273.65625 176.855469 C 275.558594 176.195312 283.378906 169.347656 284.535156 170.589844 Z M 284.535156 170.589844 " fill-opacity="1" fill-rule="nonzero"/><path fill="#f0f9ff" d="M 362.714844 162.347656 C 362.480469 162.628906 360.585938 161.152344 359.253906 161.015625 C 356.878906 160.765625 353.519531 161.703125 351.75 160.292969 C 353.6875 159.316406 359.144531 153.660156 360.652344 154.117188 C 362.921875 154.796875 363.40625 161.523438 362.714844 162.347656 Z M 362.714844 162.347656 " fill-opacity="1" fill-rule="nonzero"/><path fill="#f0f9ff" d="M 302.253906 237.964844 C 303.941406 240.351562 299.753906 251.160156 300.917969 254.929688 C 295.621094 284.546875 268.519531 312.101562 245.453125 329.828125 C 227.179688 343.871094 198.484375 351.65625 175.535156 353.199219 C 156.417969 354.484375 117.769531 347.625 99.054688 341.800781 C 66.03125 331.523438 28.683594 289.992188 19.105469 257.089844 C 13.140625 236.597656 14.265625 215.5625 13 194.566406 C 12.777344 190.890625 11.300781 188.0625 11.519531 183.570312 C 13.011719 152.828125 33.761719 111.699219 54.101562 88.902344 C 81.097656 58.644531 141.949219 41.214844 181.066406 45.585938 C 184.210938 45.9375 193.128906 44.230469 192.472656 48.859375 C 192.246094 50.453125 190.707031 52.785156 190.246094 54.933594 C 181.917969 93.464844 176.089844 129.382812 161.785156 166.46875 C 159.425781 172.585938 151.894531 183.75 154.914062 189.816406 C 157.453125 194.910156 168.996094 196.09375 174.175781 197.988281 C 206.863281 209.945312 239.210938 217.207031 272.214844 227.53125 C 276.171875 228.769531 301.335938 236.664062 302.253906 237.960938 Z M 302.253906 237.964844 " fill-opacity="1" fill-rule="nonzero"/><path fill="#3d3b93" d="M 71.664062 134.621094 C 71.125 135.167969 67.980469 136.277344 67.101562 136.285156 C 61.507812 136.355469 61.792969 127.859375 62.957031 123.847656 C 64.640625 118.050781 75.359375 102.433594 81.09375 100.777344 C 84.8125 99.703125 89.371094 102.777344 88.242188 106.515625 C 87.054688 110.433594 79 117.117188 76.300781 122.097656 C 74.574219 125.289062 72.460938 133.816406 71.667969 134.621094 Z M 71.664062 134.621094 " fill-opacity="1" fill-rule="nonzero"/><path fill="#3d3b93" d="M 180.1875 309.132812 C 179.628906 309.667969 172.734375 312.074219 171.390625 312.074219 C 165.320312 312.066406 143.894531 304.296875 146.132812 296.417969 C 148.210938 289.117188 156.109375 295.53125 160.359375 296.929688 C 165.082031 298.476562 178.691406 300.089844 180.097656 304.632812 C 180.417969 305.667969 180.628906 308.714844 180.191406 309.136719 Z M 180.1875 309.132812 " fill-opacity="1" fill-rule="nonzero"/><path fill="#3d3b93" d="M 87.09375 149.925781 C 83.078125 145.761719 88.675781 125.617188 95.304688 127.253906 C 97.574219 127.816406 100.230469 130.753906 100.480469 133.050781 C 100.800781 135.921875 95.269531 147.941406 92.546875 149.34375 C 91.296875 149.988281 87.671875 150.523438 87.089844 149.925781 Z M 87.09375 149.925781 " fill-opacity="1" fill-rule="nonzero"/></svg>